<?xml version="1.0" encoding="UTF-8"?>
<svg width="100" height="100" viewBox="0 0 100 100" xmlns="http://www.w3.org/2000/svg">
  <path d="M50 10C40 10 35 20 35 25C25 25 15 35 15 50C15 70 30 85 50 85C70 85 85 70 85 50C85 35 75 25 65 25C65 20 60 10 50 10Z" fill="#e74c3c"/>
  <path d="M50 20C45 20 42.5 25 42.5 27.5C37.5 27.5 32.5 32.5 32.5 40C32.5 50 40 57.5 50 57.5C60 57.5 67.5 50 67.5 40C67.5 32.5 62.5 27.5 57.5 27.5C57.5 25 55 20 50 20Z" fill="#c0392b"/>
  <path d="M50 10C55 10 60 15 60 20C60 25 55 30 50 30C45 30 40 25 40 20C40 15 45 10 50 10Z" fill="#27ae60"/>
  <path d="M50 15C52.5 15 55 17.5 55 20C55 22.5 52.5 25 50 25C47.5 25 45 22.5 45 20C45 17.5 47.5 15 50 15Z" fill="#2ecc71"/>
</svg>
